<?xml version="1.0" encoding="UTF-8"?>
<svg id="Camada_2" data-name="Camada 2" xmlns="http://www.w3.org/2000/svg" version="1.1" viewBox="0 0 275.9 100">
  <defs>
    <style>
      .cls-1 {
        fill: none;
      }

      .cls-1, .cls-2, .cls-3 {
        stroke-width: 0px;
      }

      .cls-2 {
        fill: #f59e0b;
      }

      .cls-3 {
        fill: #16a34a;
      }
    </style>
  </defs>
  <g id="Camada_1-2" data-name="Camada 1-2">
    <path class="cls-2" d="M59.4,31.8c0,.8-.3,1.6-.9,2.2l-16,16c-.7.7-1.5,1-2.4.9,0,0-.1,0-.2,0-.8,0-1.6-.3-2.2-.9l-8.3-8.3c-1.2-1.2-1.2-3.2,0-4.4.6-.6,1.4-.9,2.2-.9s1.6.3,2.2.9l6.3,6.3,14-14c1.2-1.2,3.2-1.2,4.4,0,.6.6.9,1.4.9,2.2Z"/>
    <rect class="cls-3" x="19.4" y="71.2" width="46.7" height="6.3" rx="2.3" ry="2.3"/>
    <rect class="cls-3" x="19.4" y="59" width="46.7" height="6.3" rx="2.3" ry="2.3"/>
    <line class="cls-1" x1="49.7" y1="13.9" x2="35.8"/>
    <line class="cls-1" x1="35.3" y1="85.4" x2="46.7" y2="96.8"/>
    <path class="cls-3" d="M113.2,18.7h9.1v13.3h5.4v7.8h-5.4v28.3h-9.1v-28.3h-4.6v-7.8h4.6v-13.3Z"/>
    <path class="cls-3" d="M149.4,31c3.4,0,6.6.9,9.6,2.6s5.3,4,7,6.9,2.5,6.1,2.5,9.5-.9,6.6-2.5,9.5c-1.7,3-4,5.3-6.9,6.9s-6.1,2.5-9.6,2.5c-5.2,0-9.6-1.8-13.2-5.5-3.7-3.7-5.5-8.1-5.5-13.4s2.1-10.3,6.2-14.1c3.6-3.3,7.8-4.9,12.5-4.9h0ZM149.6,39.5c-2.8,0-5.1,1-7,2.9-1.9,2-2.8,4.5-2.8,7.5s.9,5.7,2.8,7.6,4.2,2.9,7,2.9,5.2-1,7.1-3c1.9-2,2.8-4.5,2.8-7.6s-.9-5.6-2.8-7.5-4.2-2.9-7.1-2.9h0Z"/>
    <path class="cls-3" d="M180.9,58.6c1.4,0,2.7.5,3.7,1.5,1,1,1.5,2.2,1.5,3.7s-.5,2.7-1.5,3.7-2.2,1.5-3.7,1.5-2.7-.5-3.7-1.5-1.5-2.2-1.5-3.7.5-2.7,1.5-3.7,2.2-1.5,3.7-1.5Z"/>
    <path class="cls-2" d="M221.6,18h9.1v50h-9.1v-3.8c-1.8,1.7-3.5,2.9-5.3,3.6-1.8.7-3.7,1.1-5.8,1.1-4.7,0-8.7-1.8-12.1-5.4s-5.1-8.1-5.1-13.5,1.6-10.1,4.9-13.7c3.3-3.6,7.3-5.3,12-5.3s4.2.4,6.1,1.2c1.9.8,3.6,2,5.3,3.7v-17.9ZM212.1,39.4c-2.8,0-5.1,1-7,3s-2.8,4.5-2.8,7.6.9,5.7,2.8,7.7,4.2,3,7,3,5.2-1,7.1-3c1.9-2,2.8-4.6,2.8-7.8s-.9-5.7-2.8-7.6-4.2-2.9-7.1-2.9h0Z"/>
    <path class="cls-2" d="M256.7,31c3.4,0,6.6.9,9.6,2.6s5.3,4,7,6.9c1.7,2.9,2.5,6.1,2.5,9.5s-.9,6.6-2.5,9.5-4,5.3-6.9,6.9-6.1,2.5-9.6,2.5c-5.2,0-9.6-1.8-13.2-5.5-3.7-3.7-5.5-8.1-5.5-13.4s2.1-10.3,6.2-14.1c3.6-3.3,7.8-4.9,12.5-4.9h0ZM256.9,39.5c-2.8,0-5.1,1-7,2.9-1.9,2-2.8,4.5-2.8,7.5s.9,5.7,2.8,7.6,4.2,2.9,7,2.9,5.2-1,7.1-3c1.9-2,2.8-4.5,2.8-7.6s-.9-5.6-2.8-7.5c-1.9-1.9-4.2-2.9-7.1-2.9h0Z"/>
  </g>
  <path class="cls-3" d="M35.7,86.7l7.3,7.3H11.1c-6.1,0-11.1-5-11.1-11.1V17.7C0,11.6,5,6.6,11.1,6.6h19.5V.6l6,6,7.3,7.3h-27.5c-5.1,0-9.3,4.1-9.3,9.3v54.3c0,5.1,4.1,9.3,9.3,9.3h19.2Z"/>
  <path class="cls-2" d="M85.8,17.7v65.2c0,6.1-5,11.1-11.1,11.1h-19.1v6l-13.3-13.3h27.1c5.1,0,9.3-4.1,9.3-9.3V23.2c0-5.1-4.1-9.3-9.3-9.3h-18.7l-7.3-7.3h31.3c6.1,0,11.1,5,11.1,11.1Z"/>
</svg>